# xmcd
#
# Track frame offsets:
#	150
#	20663
#	38735
#	57910
#	74426
#	91516
#	110904
#	131760
#	149804
#	167802
#	185743
#
# Disc length: 2719 seconds
#
# Revision: 0
# Processed by: cddbd v1.5.2PL0 Copyright (c) Steve Scherf et al.
# Submitted via: audiograbber 1.83.01
#
DISCID=a70a9d0b
DTITLE=Artful Dodger - It's All About The Stragglers
DYEAR=2000
DGENRE=Electronic
TTITLE0=Think About Me (featuring Michelle Escoffery)
TTITLE1=Re-Rewind [Radio Edit] (featuring Craig David)
TTITLE2=Outrageous (featuring Lyn Eden)
TTITLE3=Please Don't Turn Me On [Radio Edit] (featuring Lifford)
TTITLE4=TwentyFourSeven [Radio Edit] (featuring Nicole)
TTITLE5=Something (featuring Lifford)
TTITLE6=R U Ready (featuring MC Alistair)
TTITLE7=I Can't Give It Up (featuring Nadia)
TTITLE8=Woman Trouble [Radio Edit] (featuring Robbie Craig and Craig David)
TTITLE9=What You Gonna Do? (featuring Craig David)
TTITLE10=We Should Get Together (featuring Nadia)
EXTD=YEAR: 2000
EXTT0=
EXTT1=
EXTT2=
EXTT3=
EXTT4=
EXTT5=
EXTT6=
EXTT7=
EXTT8=
EXTT9=
EXTT10=
PLAYORDER=
